<?xml version="1.0" encoding="UTF-8" standalone="no"?>
<svg
   version="1.0"
   width="1024.000000pt"
   height="1024.000000pt"
   viewBox="0 0 1024.000000 1024.000000"
   preserveAspectRatio="xMidYMid meet"
   id="svg12"
   sodipodi:docname="xonic.svg"
   inkscape:version="1.1.2 (76b9e6a115, 2022-02-25)"
   xmlns:inkscape="http://www.inkscape.org/namespaces/inkscape"
   xmlns:sodipodi="http://sodipodi.sourceforge.net/DTD/sodipodi-0.dtd"
   xmlns="http://www.w3.org/2000/svg"
   xmlns:svg="http://www.w3.org/2000/svg">
  <defs
     id="defs16" />
  <sodipodi:namedview
     id="namedview14"
     pagecolor="#505050"
     bordercolor="#ffffff"
     borderopacity="1"
     inkscape:pageshadow="0"
     inkscape:pageopacity="0"
     inkscape:pagecheckerboard="1"
     inkscape:document-units="pt"
     showgrid="false"
     inkscape:zoom="0.28637695"
     inkscape:cx="226.97357"
     inkscape:cy="536.00682"
     inkscape:window-width="1920"
     inkscape:window-height="946"
     inkscape:window-x="0"
     inkscape:window-y="0"
     inkscape:window-maximized="1"
     inkscape:current-layer="svg12" />
  <g
     transform="translate(0.000000,1024.000000) scale(0.100000,-0.100000)"
     fill="#000000"
     stroke="none"
     id="g10"
     style="fill:#36e7f4;fill-opacity:1">
    <path
       d="M0 5120 l0 -5120 1025 0 1025 0 0 5120 0 5120 -1025 0 -1025 0 0 -5120z"
       id="path2"
       style="fill:#36e7f4;fill-opacity:1" />
    <path
       d="M4100 9215 l0 -1025 1020 0 1020 0 0 1025 0 1025 -1020 0 -1020 0 0 -1025z"
       id="path4"
       style="fill:#36e7f4;fill-opacity:1" />
    <path
       d="M8190 5120 l0 -5120 1025 0 1025 0 0 5120 0 5120 -1025 0 -1025 0 0 -5120z"
       id="path6"
       style="fill:#36e7f4;fill-opacity:1" />
    <path
       d="M4100 1025 l0 -1025 1020 0 1020 0 0 1025 0 1025 -1020 0 -1020 0 0 -1025z"
       id="path8"
       style="fill:#36e7f4;fill-opacity:1" />
  </g>
</svg>
